<?xml version="1.0" encoding="UTF-8"?>
<svg viewBox="0 0 155.14655 155.14655" xmlns="http://www.w3.org/2000/svg">
 <defs>
  <filter id="b">
   <feGaussianBlur stdDeviation="9.84331"/>
  </filter>
  <linearGradient id="a" x1="216.73" x2="622.26" y1="120.9" y2="354.42" gradientUnits="userSpaceOnUse">
   <stop stop-color="#1f241c" offset="0"/>
   <stop stop-color="#1f241c" stop-opacity="0" offset="1"/>
  </linearGradient>
 </defs>
 <path transform="matrix(.27734 0 0 .27734 -41.189 15.177)" d="m674.31 224.98c0 135.91-110.18 246.08-246.08 246.08s-246.08-110.18-246.08-246.08 110.18-246.08 246.08-246.08 246.08 110.18 246.08 246.08z" fill="#0b280b" filter="url(#b)" stroke="#0b280b" stroke-linecap="round" stroke-width="20"/>
 <path transform="matrix(.27734 0 0 .27734 -41.189 15.177)" d="m674.31 224.98c0 135.91-110.18 246.08-246.08 246.08s-246.08-110.18-246.08-246.08 110.18-246.08 246.08-246.08 246.08 110.18 246.08 246.08z" fill="#008000" opacity=".96761" stroke="#d5ffd5" stroke-linecap="round" stroke-width="20"/>
 <path transform="matrix(.27734 0 0 .27734 -41.189 15.177)" d="m674.31 224.98c0 135.91-110.18 246.08-246.08 246.08s-246.08-110.18-246.08-246.08 110.18-246.08 246.08-246.08 246.08 110.18 246.08 246.08z" fill="url(#a)" opacity=".96761" stroke="#d5ffd5" stroke-linecap="round" stroke-width="20"/>
 <g transform="matrix(.27734 0 0 .27734 -38.812 16.252)" fill="#d5ffd5">
  <path d="m414.96 149.06c4.1002-6.2995 9.5517-5.0548 15.686 0l8.9633 204.85c-13.477 17.932-23.533 11.395-31.371 0z" opacity=".96761"/>
  <g transform="matrix(.78429 0 0 .78429 98.347 49.184)">
   <path d="m545.72 56.808c-7.2734 13.166-27.529 85.194-81.421 85.526-21.415 0.13202-27.307-2.0238-31.014-12.541-4.2436-12.037-0.26673-24.098 18.648-33.442 49.382-24.395 93.787-39.544 93.787-39.544z" opacity=".96761"/>
   <path d="m280.31 56.808c7.2734 13.166 27.529 85.194 81.421 85.526 21.415 0.13202 27.307-2.0238 31.014-12.541 4.2436-12.037 0.26673-24.098-18.648-33.442-49.382-24.395-93.787-39.544-93.787-39.544z" opacity=".96761"/>
  </g>
  <path d="m434.19 130.81c-9.3052 21.523-5.8571 8.1143-13.082 8.1143s-3.5301 11.374-13.082-8.1143c-19.187-39.147 5.8571-65.411 13.082-89.831 7.2251 22.676 32.269 45.452 13.082 89.831z" opacity=".96761"/>
  <g transform="matrix(.58 0 0 .58 181.77 81.037)">
   <path d="m651.43 389.26c-17.381-25.355-82.069-177.38-166.08-141.43-33.386 14.286-41.56 23.262-42.487 50-1.0605 30.603 10.682 55.66 44.418 64.286 88.078 22.52 164.15 27.143 164.15 27.143z" opacity=".96761"/>
   <path d="m447.49 279.25c97.492 10.724 200.83 108.22 200.83 108.22" stroke="#050"/>
  </g>
  <g transform="matrix(-.62065 0 0 .62065 684.01 68.199)">
   <path d="m651.43 389.26c-17.381-25.355-82.069-177.38-166.08-141.43-33.386 14.286-41.56 23.262-42.487 50-1.0605 30.603 10.682 55.66 44.418 64.286 88.078 22.52 164.15 27.143 164.15 27.143z" opacity=".96761"/>
   <path d="m447.49 279.25c97.492 10.724 200.83 108.22 200.83 108.22" stroke="#050"/>
  </g>
 </g>
</svg>
